<?xml version="1.0" encoding="UTF-8" standalone="no"?>
<!-- Created with Inkscape (http://www.inkscape.org/) -->

<svg
   xmlns:dc="http://purl.org/dc/elements/1.1/"
   xmlns:cc="http://creativecommons.org/ns#"
   xmlns:rdf="http://www.w3.org/1999/02/22-rdf-syntax-ns#"
   xmlns:svg="http://www.w3.org/2000/svg"
   xmlns="http://www.w3.org/2000/svg"
   xmlns:sodipodi="http://sodipodi.sourceforge.net/DTD/sodipodi-0.dtd"
   xmlns:inkscape="http://www.inkscape.org/namespaces/inkscape"
   width="12"
   height="12"
   viewBox="0 0 11.999999 12"
   id="svg12452"
   version="1.1"
   inkscape:version="0.91 r13725"
   sodipodi:docname="semi-starred-rtl.svg">
  <defs
     id="defs12454" />
  <sodipodi:namedview
     id="base"
     pagecolor="#ffffff"
     bordercolor="#666666"
     borderopacity="1.0"
     inkscape:pageopacity="0.0"
     inkscape:pageshadow="2"
     inkscape:zoom="32"
     inkscape:cx="-10.001802"
     inkscape:cy="-1.0267909"
     inkscape:document-units="px"
     inkscape:current-layer="layer1"
     showgrid="true"
     inkscape:snap-bbox="true"
     inkscape:bbox-paths="true"
     units="px"
     inkscape:showpageshadow="false"
     borderlayer="true"
     inkscape:window-width="2560"
     inkscape:window-height="1376"
     inkscape:window-x="0"
     inkscape:window-y="27"
     inkscape:window-maximized="1"
     fit-margin-top="0"
     fit-margin-left="0"
     fit-margin-right="0"
     fit-margin-bottom="0">
    <inkscape:grid
       type="xygrid"
       id="grid13034"
       originx="-35.001407"
       originy="-2.9797634" />
  </sodipodi:namedview>
  <metadata
     id="metadata12457">
    <rdf:RDF>
      <cc:Work
         rdf:about="">
        <dc:format>image/svg+xml</dc:format>
        <dc:type
           rdf:resource="http://purl.org/dc/dcmitype/StillImage" />
        <dc:title></dc:title>
      </cc:Work>
    </rdf:RDF>
  </metadata>
  <g
     inkscape:label="Layer 1"
     inkscape:groupmode="layer"
     id="layer1"
     transform="translate(-35.001409,-1037.3824)">
    <g
       id="semi-starred"
       inkscape:label="semi-starred"
       transform="matrix(-0.74758516,0,0,0.74758516,217.38079,292.82621)"
       style="display:inline">
      <g
         inkscape:label="folder-remote"
         id="g14175">
        <rect
           y="996"
           x="227.9998"
           height="16"
           width="16"
           id="rect14177"
           style="color:#bebebe;display:inline;overflow:visible;visibility:visible;fill:none;stroke:none;stroke-width:2;marker:none;enable-background:accumulate" />
      </g>
      <path
         style="color:#000000;display:inline;overflow:visible;visibility:visible;fill:#bebebe;fill-opacity:1;stroke:none;stroke-width:1.04970646;marker:none;enable-background:accumulate"
         d="m 235.97025,997.26354 c -0.92654,-0.003 -1.28788,2.74946 -2.03971,3.27206 -0.75154,0.5223 -4.55493,-0.2105 -4.84454,0.6385 -0.28973,0.8492 3.18686,3.1307 3.46954,3.9822 0.28257,0.851 -1.24718,3.6906 -0.5,4.2187 0.74748,0.5283 2.95692,-1.9589 3.88346,-1.9552 -1.40068,-1.0338 -0.063,0.3038 0.0312,0 z"
         id="path14181"
         inkscape:connector-curvature="0"
         sodipodi:nodetypes="ccccsccc" />
      <path
         style="color:#000000;display:inline;overflow:visible;visibility:visible;fill:none;stroke:#bebebe;stroke-width:1.33764029;stroke-miterlimit:4;stroke-dasharray:none;stroke-opacity:1;marker:none;enable-background:accumulate"
         inkscape:transform-center-x="-0.0086831231"
         inkscape:transform-center-y="-0.59887625"
         d="m 240.30778,1010.011 c -0.84451,0.5943 -3.35412,-2.686 -4.39906,-2.6958 -1.06159,-0.011 -3.67349,3.2106 -4.53328,2.6094 -0.84625,-0.5918 1.4685,-4.1187 1.15561,-5.0813 -0.31794,-0.9779 -4.15726,-2.7218 -3.83059,-3.6974 0.32153,-0.9598 4.06079,-0.1132 4.91229,-0.6977 0.86516,-0.5942 1.30515,-3.7508 2.3668,-3.75222 1.04502,-10e-4 1.36637,3.14456 2.20554,3.74592 0.85261,0.6108 4.63873,-0.1303 4.9682,0.8444 0.32432,0.959 -3.5119,2.5904 -3.84477,3.5468 -0.3382,0.9719 1.85731,4.5743 0.99926,5.1779 z"
         id="path5520-9"
         inkscape:connector-curvature="0"
         sodipodi:nodetypes="scsssccssss" />
    </g>
  </g>
</svg>
