<?xml version="1.0" encoding="UTF-8" standalone="no"?>
<!-- Created with Inkscape (http://www.inkscape.org/) -->

<svg
   xmlns:dc="http://purl.org/dc/elements/1.1/"
   xmlns:cc="http://creativecommons.org/ns#"
   xmlns:rdf="http://www.w3.org/1999/02/22-rdf-syntax-ns#"
   xmlns:svg="http://www.w3.org/2000/svg"
   xmlns="http://www.w3.org/2000/svg"
   xmlns:xlink="http://www.w3.org/1999/xlink"
   xmlns:sodipodi="http://sodipodi.sourceforge.net/DTD/sodipodi-0.dtd"
   xmlns:inkscape="http://www.inkscape.org/namespaces/inkscape"
   width="11.961363"
   height="11.961363"
   viewBox="0 0 11.961362 11.961363"
   id="svg12452"
   version="1.1"
   inkscape:version="0.91 r13725"
   sodipodi:docname="semi-starred.svg">
  <defs
     id="defs12454" />
  <sodipodi:namedview
     id="base"
     pagecolor="#ffffff"
     bordercolor="#666666"
     borderopacity="1.0"
     inkscape:pageopacity="0.0"
     inkscape:pageshadow="2"
     inkscape:zoom="5.6568542"
     inkscape:cx="-35.744063"
     inkscape:cy="20.195524"
     inkscape:document-units="px"
     inkscape:current-layer="layer1"
     showgrid="false"
     inkscape:snap-bbox="true"
     inkscape:bbox-paths="true"
     units="px"
     inkscape:showpageshadow="false"
     borderlayer="true"
     inkscape:window-width="2560"
     inkscape:window-height="1376"
     inkscape:window-x="0"
     inkscape:window-y="27"
     inkscape:window-maximized="1"
     fit-margin-top="0"
     fit-margin-left="0"
     fit-margin-right="0"
     fit-margin-bottom="0">
    <inkscape:grid
       type="xygrid"
       id="grid13034"
       originx="-5.0312519"
       originy="-2.9464281" />
  </sodipodi:namedview>
  <metadata
     id="metadata12457">
    <rdf:RDF>
      <cc:Work
         rdf:about="">
        <dc:format>image/svg+xml</dc:format>
        <dc:type
           rdf:resource="http://purl.org/dc/dcmitype/StillImage" />
        <dc:title></dc:title>
      </cc:Work>
    </rdf:RDF>
  </metadata>
  <g
     inkscape:label="Layer 1"
     inkscape:groupmode="layer"
     id="layer1"
     transform="translate(-5.0312523,-1037.4544)">
    <g
       id="semi-starred"
       inkscape:label="semi-starred"
       transform="matrix(0.74758516,0,0,0.74758516,-135.44786,1330.2806)"
       style="display:inline">
      <g
         inkscape:label="folder-remote"
         id="g14175">
        <rect
           y="996"
           x="227.9998"
           height="16"
           width="16"
           id="rect14177"
           style="color:#bebebe;display:inline;overflow:visible;visibility:visible;fill:none;stroke:none;stroke-width:2;marker:none;enable-background:accumulate" />
      </g>
      <path
         sodipodi:type="star"
         style="color:#000000;clip-rule:nonzero;display:inline;overflow:visible;visibility:visible;opacity:1;isolation:auto;mix-blend-mode:normal;color-interpolation:sRGB;color-interpolation-filters:linearRGB;solid-color:#000000;solid-opacity:1;fill:none;fill-opacity:1;fill-rule:nonzero;stroke:#bebebe;stroke-width:2.5471139;stroke-linecap:butt;stroke-linejoin:miter;stroke-miterlimit:4;stroke-dasharray:none;stroke-dashoffset:0;stroke-opacity:1;marker:none;color-rendering:auto;image-rendering:auto;shape-rendering:auto;text-rendering:auto;enable-background:accumulate"
         id="path14179"
         sodipodi:sides="5"
         sodipodi:cx="526.88293"
         sodipodi:cy="180.96373"
         sodipodi:r1="7.0383992"
         sodipodi:r2="3.8276224"
         sodipodi:arg1="0.95492637"
         sodipodi:arg2="1.5829876"
         inkscape:flatsided="false"
         inkscape:rounded="0.2104596"
         inkscape:randomized="0"
         d="m 530.9488,186.70897 c -0.77941,0.55189 -3.15759,-1.90601 -4.11253,-1.9179 -0.95532,-0.0119 -3.39494,2.38585 -4.16096,1.8149 -0.76573,-0.57072 0.83698,-3.59203 0.55319,-4.50391 -0.2839,-0.91223 -3.31818,-2.49151 -3.01189,-3.39647 0.30617,-0.90461 3.67487,-0.31399 4.45442,-0.86567 0.77986,-0.5519 1.3442,-3.92569 2.29952,-3.91404 0.95494,0.0116 1.43421,3.39798 2.19979,3.9689 0.76588,0.57114 4.14893,0.0653 4.43307,0.97746 0.28402,0.9118 -2.78848,2.41405 -3.09488,3.31858 -0.30652,0.90489 1.21999,3.96605 0.44027,4.51815 z"
         transform="matrix(0.99189353,-0.00796587,0.00825543,0.95710144,-288.00729,834.85097)"
         inkscape:transform-center-x="-0.0089881561"
         inkscape:transform-center-y="-0.63513342" />
      <path
         style="color:#000000;display:inline;overflow:visible;visibility:visible;fill:#bebebe;fill-opacity:1;stroke:none;stroke-width:1.04970646;marker:none;enable-background:accumulate"
         d="m 236.11804,997.5 c -0.92654,-0.003 -1.43567,3.1337 -2.1875,3.6563 -0.75154,0.5223 -4.02289,0.026 -4.3125,0.875 -0.28973,0.8492 2.65482,2.2735 2.9375,3.125 0.28257,0.851 -1.24718,3.6906 -0.5,4.2187 0.74748,0.5283 3.10471,-1.7224 4.03125,-1.7187 0.008,0 0.0226,-5e-4 0.0312,0 l 5e-5,-10.1563 z"
         id="path14181"
         inkscape:connector-curvature="0" />
    </g>
    <g
       id="semi-starred-rtl"
       inkscape:label="semi-starred-rtl"
       transform="matrix(-1,0,0,1,77.04709,1039.4544)">
      <use
         height="100%"
         width="100%"
         transform="matrix(-1,0,0,1,106.95334,-2076.9088)"
         id="use13068"
         xlink:href="#semi-starred"
         y="0"
         x="0" />
    </g>
  </g>
</svg>
