<?xml version="1.0" encoding="UTF-8" standalone="no"?>
<!-- Created with Inkscape (http://www.inkscape.org/) -->

<svg
   xmlns:dc="http://purl.org/dc/elements/1.1/"
   xmlns:cc="http://creativecommons.org/ns#"
   xmlns:rdf="http://www.w3.org/1999/02/22-rdf-syntax-ns#"
   xmlns:svg="http://www.w3.org/2000/svg"
   xmlns="http://www.w3.org/2000/svg"
   xmlns:sodipodi="http://sodipodi.sourceforge.net/DTD/sodipodi-0.dtd"
   xmlns:inkscape="http://www.inkscape.org/namespaces/inkscape"
   id="svg7384"
   sodipodi:docname="nes-30.svg"
   version="1.1"
   inkscape:version="0.91 r13725"
   height="225"
   width="400">
  <metadata
     id="metadata90">
    <rdf:RDF>
      <cc:Work
         rdf:about="">
        <dc:format>image/svg+xml</dc:format>
        <dc:type
           rdf:resource="http://purl.org/dc/dcmitype/StillImage" />
        <dc:title>Gnome Symbolic Icon Theme</dc:title>
      </cc:Work>
    </rdf:RDF>
  </metadata>
  <sodipodi:namedview
     inkscape:cy="114.1784"
     pagecolor="#e5e6e4"
     borderopacity="1"
     showborder="true"
     inkscape:bbox-paths="false"
     guidetolerance="10"
     inkscape:object-paths="false"
     inkscape:window-width="2560"
     showguides="true"
     inkscape:object-nodes="true"
     inkscape:snap-bbox="true"
     inkscape:pageshadow="2"
     inkscape:guide-bbox="true"
     inkscape:snap-nodes="false"
     bordercolor="#666666"
     objecttolerance="10"
     id="namedview88"
     showgrid="false"
     inkscape:window-maximized="1"
     inkscape:window-x="2560"
     inkscape:snap-global="true"
     inkscape:window-y="0"
     gridtolerance="10"
     inkscape:window-height="1403"
     inkscape:snap-others="false"
     inkscape:snap-to-guides="true"
     inkscape:current-layer="layer12"
     inkscape:snap-bbox-midpoints="false"
     inkscape:zoom="1"
     inkscape:cx="222.38535"
     inkscape:snap-grids="true"
     inkscape:pageopacity="1"
     inkscape:showpageshadow="false">
    <inkscape:grid
       spacingx="1px"
       spacingy="1px"
       id="grid4866"
       empspacing="2"
       enabled="true"
       type="xygrid"
       snapvisiblegridlinesonly="true"
       visible="true" />
  </sodipodi:namedview>
  <title
     id="title9167">Gnome Symbolic Icon Theme</title>
  <defs
     id="defs7386" />
  <g
     inkscape:label="figures"
     transform="translate(-569.10098,-638)"
     inkscape:groupmode="layer"
     id="layer12"
     style="display:inline">
    <line
       class="fil0 str2"
       x1="924.81726"
       y1="813.96222"
       x2="805.73279"
       y2="813.96222"
       id="line87"
       style="clip-rule:evenodd;fill:none;fill-rule:evenodd;stroke:#757475;stroke-width:0.26999399;stroke-linejoin:bevel;image-rendering:optimizeQuality;shape-rendering:geometricPrecision;text-rendering:geometricPrecision"
       inkscape:export-xdpi="81.68"
       inkscape:export-ydpi="81.68" />
    <line
       class="fil0 str2"
       x1="711.63953"
       y1="813.96222"
       x2="614.3847"
       y2="813.96222"
       id="line89"
       style="clip-rule:evenodd;fill:none;fill-rule:evenodd;stroke:#757475;stroke-width:0.26999399;stroke-linejoin:bevel;image-rendering:optimizeQuality;shape-rendering:geometricPrecision;text-rendering:geometricPrecision"
       inkscape:export-xdpi="81.68"
       inkscape:export-ydpi="81.68" />
    <path
       sodipodi:nodetypes="sccsccsccssss"
       inkscape:export-ydpi="81.68"
       inkscape:export-xdpi="81.68"
       style="clip-rule:evenodd;fill:#cacac4;fill-opacity:1;fill-rule:evenodd;stroke:#babdb6;stroke-width:3;stroke-miterlimit:4;stroke-dasharray:none;stroke-opacity:1;image-rendering:optimizeQuality;shape-rendering:geometricPrecision;text-rendering:geometricPrecision"
       inkscape:connector-curvature="0"
       id="path8346"
       d="m 938.51723,826.27898 0,-142.57905 0,-0.15036 c -0.15055,-2.25536 -1.95714,-3.9093 -4.06483,-3.9093 l -50.28348,0 -229.13591,0 -50.28344,0 c -2.10768,0 -3.76372,1.50358 -4.06482,3.45823 l 0,0.60143 0,143.57905 c 0,4.31645 3.06315,6.96002 7.31482,6.96002 l 321.45283,0 c 5.35769,0 9.06483,-3.20465 9.06483,-7.96002 z"
       class="fil0 str3" />
    <line
       class="fil0 str2"
       x1="908.40735"
       y1="733.6712"
       x2="882.96454"
       y2="733.6712"
       id="line105"
       style="clip-rule:evenodd;fill:none;fill-rule:evenodd;stroke:#757475;stroke-width:0.26999399;stroke-linejoin:bevel;image-rendering:optimizeQuality;shape-rendering:geometricPrecision;text-rendering:geometricPrecision"
       inkscape:export-xdpi="81.68"
       inkscape:export-ydpi="81.68" />
    <line
       class="fil0 str2"
       x1="841.41296"
       y1="733.6712"
       x2="816.12067"
       y2="733.6712"
       id="line107"
       style="clip-rule:evenodd;fill:none;fill-rule:evenodd;stroke:#757475;stroke-width:0.26999399;stroke-linejoin:bevel;image-rendering:optimizeQuality;shape-rendering:geometricPrecision;text-rendering:geometricPrecision"
       inkscape:export-xdpi="81.68"
       inkscape:export-ydpi="81.68" />
    <path
       class="fil0 str2"
       d="m 611.82539,811.55645 c 0,0.60143 0.3011,1.20286 0.75275,1.65394 0.45164,0.60143 1.05384,0.75179 1.80659,0.75179"
       id="path123"
       inkscape:connector-curvature="0"
       style="clip-rule:evenodd;fill:none;fill-rule:evenodd;stroke:#757475;stroke-width:0.26999399;stroke-linejoin:bevel;image-rendering:optimizeQuality;shape-rendering:geometricPrecision;text-rendering:geometricPrecision"
       inkscape:export-xdpi="81.68"
       inkscape:export-ydpi="81.68" />
    <path
       class="fil0 str3"
       d="m 936.52314,821.21337 0,-136.69605 0,-0.1486 c -0.14877,-2.22872 -1.93402,-3.86314 -4.01683,-3.86314 l -49.68988,0 -226.43093,0 -49.68983,0 c -2.0828,0 -3.7193,1.48582 -4.01684,3.41741 l 0,0.59433 0,136.69605 c 0,2.22874 1.78527,4.16032 4.01684,4.16032 l 325.81064,0 c 2.08281,0 4.01683,-1.93158 4.01683,-4.16032 z"
       id="path139"
       inkscape:connector-curvature="0"
       style="clip-rule:evenodd;fill:#eeeeec;fill-opacity:1;fill-rule:evenodd;stroke:#babdb6;stroke-width:0.99999994;stroke-miterlimit:4;stroke-dasharray:none;stroke-opacity:1;image-rendering:optimizeQuality;shape-rendering:geometricPrecision;text-rendering:geometricPrecision"
       inkscape:export-xdpi="81.68"
       inkscape:export-ydpi="81.68"
       sodipodi:nodetypes="sccsccsccssss" />
    <path
       class="fil0 str3"
       d="m 872.66892,676.1105 0,2.60367 62.19553,0 c 2.607,0 4.84157,2.04575 5.02778,4.8354 l 0,-3.16161 c 0,-1.85976 -0.74492,-3.53356 -2.04838,-4.83539 -1.30354,-1.30185 -2.9794,-1.85978 -4.84156,-1.85978 l -24.39405,0 -8.93828,0 -24.58026,0 c -1.30349,0 -2.23457,0.92989 -2.42078,2.23173 l 0,0.18598 z"
       id="path143"
       inkscape:connector-curvature="0"
       style="clip-rule:evenodd;fill:#babdb6;fill-opacity:1;fill-rule:evenodd;stroke:none;stroke-width:2;stroke-miterlimit:4;stroke-dasharray:none;stroke-opacity:1;image-rendering:optimizeQuality;shape-rendering:geometricPrecision;text-rendering:geometricPrecision"
       inkscape:export-xdpi="81.68"
       inkscape:export-ydpi="81.68" />
    <path
       id="path131"
       style="clip-rule:evenodd;fill:#888a85;fill-opacity:1;fill-rule:evenodd;stroke:none;stroke-width:0.26999399;image-rendering:optimizeQuality;shape-rendering:geometricPrecision;text-rendering:geometricPrecision"
       d="m 831.32615,739.12687 c -7.02762,0 -12.75382,5.71891 -12.75382,12.73759 0,7.01867 5.7262,12.73759 12.75382,12.73759 7.02762,0 12.75382,-5.71892 12.75382,-12.73759 0,-7.01868 -5.7262,-12.73759 -12.75382,-12.73759 z m 30.86259,-30.82332 c -7.02762,0 -12.75382,5.71891 -12.75382,12.73759 0,7.01867 5.7262,12.73759 12.75382,12.73759 7.02762,0 12.75382,-5.71892 12.75382,-12.73759 0,-7.01868 -5.7262,-12.73759 -12.75382,-12.73759 z m 30.86259,30.82332 c -7.02762,0 -12.75382,5.71891 -12.75382,12.73759 0,7.01867 5.7262,12.73759 12.75382,12.73759 7.02762,0 12.75382,-5.71892 12.75382,-12.73759 0,-7.01868 -5.7262,-12.73759 -12.75382,-12.73759 z m -30.86259,30.82332 c -7.02762,0 -12.75382,5.71891 -12.75382,12.73759 0,7.01867 5.7262,12.73759 12.75382,12.73759 7.02762,0 12.75382,-5.71892 12.75382,-12.73759 0,-7.01868 -5.7262,-12.73759 -12.75382,-12.73759 z" />
    <path
       class="fil0 str3"
       d="m 768.0955,778.17705 c -0.9033,1.50357 -0.9033,3.15751 0,4.66109 0.7527,1.35322 2.2582,2.25536 3.9142,2.25536 l 16.4099,0 c 1.6561,0 3.1616,-0.90214 4.0648,-2.25536 0.7528,-1.50358 0.7528,-3.15752 0,-4.66109 -0.9032,-1.35322 -2.4087,-2.25537 -4.0648,-2.25537 l -16.4099,0 c -1.656,0 -3.1615,0.90215 -3.9142,2.25537 z"
       id="path159"
       inkscape:connector-curvature="0"
       style="clip-rule:evenodd;fill:none;fill-rule:evenodd;stroke:#757475;stroke-width:0.26999399;image-rendering:optimizeQuality;shape-rendering:geometricPrecision;text-rendering:geometricPrecision"
       inkscape:export-xdpi="81.68"
       inkscape:export-ydpi="81.68" />
    <path
       id="path4316"
       style="color:#000000;clip-rule:evenodd;display:inline;overflow:visible;visibility:visible;opacity:1;isolation:auto;mix-blend-mode:normal;color-interpolation:sRGB;color-interpolation-filters:linearRGB;solid-color:#000000;solid-opacity:1;fill:#888a85;fill-opacity:1;fill-rule:evenodd;stroke:none;stroke-width:0.26999399;stroke-linecap:butt;stroke-linejoin:bevel;stroke-miterlimit:4;stroke-dasharray:none;stroke-dashoffset:0;stroke-opacity:1;color-rendering:auto;image-rendering:optimizeQuality;shape-rendering:geometricPrecision;text-rendering:geometricPrecision;enable-background:accumulate"
       d="m 768.0955,782.83814 c -0.9033,-1.50358 -0.9033,-3.15752 0,-4.66109 0.7527,-1.35322 2.2582,-2.25537 3.9142,-2.25537 l 16.4099,0 c 1.6561,0 3.1616,0.90215 4.0648,2.25537 0.7528,1.50357 0.7528,3.15751 0,4.66109 -0.9032,1.35322 -2.4087,2.25536 -4.0648,2.25536 l -16.4099,0 c -1.656,0 -3.1615,-0.90214 -3.9142,-2.25536 z m -39.1428,-6.91646 c -1.6561,0 -3.1615,0.90215 -4.0648,2.25537 -0.7528,1.50357 -0.7528,3.15751 0,4.66109 0.9032,1.35322 2.4087,2.25536 4.0648,2.25536 l 16.4098,0 c 1.6561,0 3.1616,-0.90214 3.9143,-2.25536 0.9033,-1.50358 0.9033,-3.15752 0,-4.66109 -0.7527,-1.35322 -2.2582,-2.25537 -3.9143,-2.25537 l -16.4098,0 z" />
    <path
       class="fil0 str3"
       d="m 649.86552,742.69059 0,-2.54549 0,-5.5402 c 0,-0.29944 0.29945,-0.59892 0.59892,-0.59892 l 21.71152,0 c 0.29944,0 0.59892,0.29948 0.59892,0.59892 l 0,5.5402 0,2.54549 0,2.39579 0,7.33698 c 0,0.44924 0.29953,0.74871 0.74868,0.74871 l 2.39579,0 7.33701,0 2.39572,0 5.68997,0 c 0.29944,0 0.59892,0.29947 0.59892,0.59892 l 0,21.71152 c 0,0.29947 -0.29948,0.44921 -0.59892,0.44921 l -5.68997,0 -2.39572,0 -2.39579,0 -7.33701,0 c -0.44915,0 -0.74868,0.44923 -0.74868,0.89842 l 0,2.39579 0,7.33698 0,2.39578 0,5.68991 c 0,0.29947 -0.29948,0.44914 -0.59892,0.44914 l -21.71152,0 c -0.29947,0 -0.59892,-0.14968 -0.59892,-0.44914 l 0,-5.68991 0,-2.39578 0,-2.5455 0,-7.18727 c 0,-0.44919 -0.29947,-0.89842 -0.74871,-0.89842 l -2.39579,0 -7.33698,0 -2.39572,0 -5.39049,0 c -0.29948,0 -0.59895,-0.14974 -0.59895,-0.44921 l 0,-21.71152 c 0,-0.29945 0.29947,-0.59892 0.59895,-0.59892 l 5.39049,0 2.39572,0 2.39579,0 7.33698,0 c 0.44924,0 0.74871,-0.29947 0.74871,-0.74871 l 0,-2.54547 z m 63.03831,-5.3774 c -0.74868,-0.74869 -1.19792,-1.79678 -1.19792,-2.84494 l 0,-7.89819 c 0,-1.04816 0.44924,-2.09628 1.19792,-2.84494 0.74865,-0.74871 1.79681,-1.19787 2.84497,-1.19787 l 85.81101,0 c 1.04819,0 2.09635,0.44915 2.84497,1.19787 0.74868,0.74866 1.19793,1.79678 1.19793,2.84494 l 0,7.89819 c 0,1.04816 -0.44925,2.09625 -1.19793,2.84494 -0.74862,0.89839 -1.79678,1.19786 -2.84497,1.19786 l -85.81101,0 c -1.04816,0 -2.09632,-0.29947 -2.84497,-1.19786 z m 2.84497,6.20164 85.81101,0 c 1.04819,0 2.09635,0.44922 2.84497,1.19786 0.74868,0.74869 1.19793,1.79684 1.19793,2.84495 l 0,7.86045 c 0,1.04815 -0.44925,2.09626 -1.19793,2.84494 -0.74862,0.74872 -1.79678,1.19786 -2.84497,1.19786 l -85.81101,0 c -1.04816,0 -2.09632,-0.44914 -2.84497,-1.19786 -0.74868,-0.74868 -1.19792,-1.79679 -1.19792,-2.84494 l 0,-7.86045 c 0,-1.04811 0.44924,-2.09626 1.19792,-2.84495 0.74865,-0.74864 1.79681,-1.19786 2.84497,-1.19786 z m 96.87838,23.58251 0,-30.39609 c 0,-0.89843 0.29947,-1.64711 0.89842,-2.24604 0.44922,-0.44923 1.19783,-0.7487 2.09626,-0.7487 l 25.15543,0 c 0.74872,0 1.34763,-0.29948 1.79687,-0.74862 0.44915,-0.44924 0.74862,-1.04816 0.74862,-1.79687 l 0,-24.7062 c 0,-0.74871 -0.29947,-1.49734 -0.89839,-2.09634 -0.59895,-0.44915 -1.34762,-0.89839 -2.09625,-0.89839 l -34.72543,0 0,9.02052 c 0,1.04816 -0.44925,2.09632 -1.19793,2.845 -0.74862,0.74862 -1.79678,1.19787 -2.84497,1.19787 l -85.81101,0 c -1.04816,0 -2.09632,-0.44925 -2.84497,-1.19787 -0.74868,-0.74868 -1.19792,-1.79684 -1.19792,-2.845 l 0,-9.02052 -96.72862,0 c -0.74871,0 -1.34763,0.29947 -1.79681,0.74871 -0.44921,0.44921 -0.74868,1.04816 -0.74868,1.79678 l 0,105.26354 c 0,0.59892 0.29947,1.19787 0.74868,1.64707 0.44918,0.59895 1.0481,0.74872 1.79681,0.74872 l 96.72862,0 0,-7.05055 c 0,-1.04817 0.44924,-2.09633 1.19792,-2.84498 0.74865,-0.74867 1.79681,-1.19793 2.84497,-1.19793 l 85.81101,0 c 1.04819,0 2.09635,0.44926 2.84497,1.19793 0.74868,0.74865 1.19793,1.79681 1.19793,2.84498 l 0,7.05055 118.12761,0 c 0.59906,0 1.34765,-0.14977 1.79687,-0.74872 0.44918,-0.4492 0.59897,-1.04815 0.59897,-1.64707 l 0,-105.26354 c 0,-0.74862 -0.14979,-1.34757 -0.59897,-1.79678 -0.44922,-0.44924 -1.19781,-0.74871 -1.79687,-0.74871 l -41.02726,0 c -0.89839,0 -1.64711,0.44923 -2.24602,0.89839 -0.44925,0.59899 -0.74872,1.34763 -0.74872,2.09634 l 0,24.7062 c 0,0.74871 0.14977,1.34763 0.59895,1.79687 0.44921,0.44914 1.19792,0.74862 1.79684,0.74862 l 25.30517,0 c 0.74869,0 1.49737,0.29947 2.09632,0.7487 0.59891,0.59892 0.89842,1.34761 0.89842,2.24604 l 0,30.39609 c 0,0.74872 -0.29951,1.4974 -0.89842,2.09635 -0.59895,0.44921 -1.34763,0.74868 -2.09632,0.74868 l -25.30517,0 c -0.59892,0 -1.34763,0.29947 -1.79684,0.74863 -0.44918,0.44924 -0.59895,1.04815 -0.59895,1.79687 l 0,25.30514 c 0,0.74868 -0.29944,1.49733 -0.89839,2.09631 -0.59892,0.44918 -1.34763,0.74862 -2.09625,0.74862 l -30.39619,0 c -0.89839,0 -1.64707,-0.29944 -2.09625,-0.74862 -0.59898,-0.59898 -0.89846,-1.34763 -0.89846,-2.09631 l 0,-25.30514 c 0,-0.74872 -0.29947,-1.34763 -0.74862,-1.79687 -0.44924,-0.44916 -1.04815,-0.74863 -1.79687,-0.74863 l -25.15543,0 c -0.89843,0 -1.64704,-0.29947 -2.09626,-0.74868 -0.59895,-0.59895 -0.89842,-1.34763 -0.89842,-2.09635 z m -96.65446,-3.54411 85.33841,0 c 1.19793,0 2.24604,0.44918 3.14447,1.19786 0.74865,0.89839 1.19786,1.94658 1.19786,3.14441 l 0,24.34428 c 0,1.19792 -0.44921,2.24602 -1.19786,3.14447 -0.89843,0.74863 -1.94654,1.19787 -3.14447,1.19787 l -85.33841,0 c -1.04816,0 -2.24602,-0.44924 -2.99471,-1.19787 -0.74862,-0.89845 -1.34757,-1.94655 -1.34757,-3.14447 l 0,-24.34428 c 0,-1.19783 0.59895,-2.24602 1.34757,-3.14441 0.74869,-0.74868 1.94655,-1.19786 2.99471,-1.19786 z"
       id="path155"
       inkscape:connector-curvature="0"
       style="clip-rule:evenodd;fill:#cacac4;fill-opacity:1;fill-rule:evenodd;stroke:#babdb6;stroke-width:1;stroke-miterlimit:4;stroke-dasharray:none;stroke-opacity:1;image-rendering:optimizeQuality;shape-rendering:geometricPrecision;text-rendering:geometricPrecision"
       inkscape:export-xdpi="81.68"
       inkscape:export-ydpi="81.68"
       sodipodi:nodetypes="ccsssscccsscccsssscccsscccsssscccsscccsssscccsscccsscsscsscsscssssscsscsssssscsscsscscsssscscscsscscscsscscscssssscsscsscsscsscsscssssscsssssscsscsscsscs" />
    <path
       class="fil0 str3"
       d="m 693.17958,776.12705 0,-22.80706 c 0,-0.3146 -0.31498,-0.62919 -0.62999,-0.62919 l -5.98463,0 -2.51983,0 -7.71703,0 -2.51987,0 c -0.47244,0 -0.78743,-0.31456 -0.78743,-0.78643 l 0,-7.70721 0,-2.51664 0,-2.67396 0,-5.81971 c 0,-0.3146 -0.31497,-0.62916 -0.62999,-0.62916 l -22.83612,0 c -0.31498,0 -0.62996,0.31456 -0.62996,0.62916 l 0,5.81971 0,2.67396 0,7.54993 0,2.67392 c 0,0.47187 -0.31497,0.78643 -0.78743,0.78643 l -7.71703,0 -2.51986,0 -2.51983,0 -5.66965,0 c -0.31502,0 -0.63,0.31459 -0.63,0.62919 l 0,22.80706 c 0,0.31455 0.31498,0.47187 0.63,0.47187 l 5.66965,0 2.51983,0 7.71703,0 2.51986,0 c 0.47246,0 0.78743,0.47187 0.78743,0.94371 l 0,7.54993 0,2.67396 0,2.51664 0,5.97699 c 0,0.31459 0.31498,0.47187 0.62996,0.47187 l 22.83612,0 c 0.31502,0 0.62999,-0.15728 0.62999,-0.47187 l 0,-5.97699 0,-2.51664 0,-7.70725 0,-2.51664 c 0,-0.47184 0.31499,-0.94371 0.78743,-0.94371 l 7.71703,0 2.51987,0 2.51983,0 5.98463,0 c 0.31501,0 0.62999,-0.15732 0.62999,-0.47187 z"
       id="path153"
       inkscape:connector-curvature="0"
       style="color:#000000;clip-rule:evenodd;display:inline;overflow:visible;visibility:visible;opacity:1;isolation:auto;mix-blend-mode:normal;color-interpolation:sRGB;color-interpolation-filters:linearRGB;solid-color:#000000;solid-opacity:1;fill:#888a85;fill-opacity:1;fill-rule:evenodd;stroke:none;stroke-width:0.26999399;stroke-linecap:butt;stroke-linejoin:bevel;stroke-miterlimit:4;stroke-dasharray:none;stroke-dashoffset:0;stroke-opacity:1;color-rendering:auto;image-rendering:optimizeQuality;shape-rendering:geometricPrecision;text-rendering:geometricPrecision;enable-background:accumulate"
       inkscape:export-xdpi="81.68"
       inkscape:export-ydpi="81.68" />
    <path
       style="display:inline;fill:#fdbc46;fill-opacity:1;stroke:none"
       sodipodi:nodetypes="cccccccc"
       id="path7195"
       d="m 306.09247,695.46153 -11.89572,-8.53547 c -23.13653,28.51134 -34.25077,64.89407 -29.7556,101.16535 l -14.33167,0.77509 25.49381,30.20744 17.14616,-32.49893 -12.99919,0.7035 c -4.923,-32.56309 5.54696,-66.18319 26.34222,-91.81699 z"
       inkscape:transform-center-y="-17.050416"
       inkscape:transform-center-x="113.93133"
       inkscape:connector-curvature="0" />
    <path
       inkscape:export-ydpi="81.68"
       inkscape:export-xdpi="81.68"
       style="clip-rule:evenodd;fill:#babdb6;fill-opacity:1;fill-rule:evenodd;stroke:none;stroke-width:2;stroke-miterlimit:4;stroke-dasharray:none;stroke-opacity:1;image-rendering:optimizeQuality;shape-rendering:geometricPrecision;text-rendering:geometricPrecision"
       inkscape:connector-curvature="0"
       id="path8348"
       d="m 666.42256,676.1105 0,2.60367 -62.19553,0 c -2.607,0 -4.84157,2.04575 -5.02778,4.8354 l 0,-3.16161 c 0,-1.85976 0.74492,-3.53356 2.04838,-4.83539 1.30354,-1.30185 2.9794,-1.85978 4.84156,-1.85978 l 24.39405,0 8.93828,0 24.58026,0 c 1.30349,0 2.23457,0.92989 2.42078,2.23173 l 0,0.18598 z"
       class="fil0 str3" />
    <line
       inkscape:export-ydpi="81.68"
       inkscape:export-xdpi="81.68"
       style="clip-rule:evenodd;fill:none;fill-rule:evenodd;stroke:#757475;stroke-width:0.26999399;stroke-linejoin:bevel;image-rendering:optimizeQuality;shape-rendering:geometricPrecision;text-rendering:geometricPrecision"
       id="line8350"
       y2="814.96222"
       x2="1308.7328"
       y1="814.96222"
       x1="1427.8173"
       class="fil0 str2" />
    <line
       inkscape:export-ydpi="81.68"
       inkscape:export-xdpi="81.68"
       style="clip-rule:evenodd;fill:none;fill-rule:evenodd;stroke:#757475;stroke-width:0.26999399;stroke-linejoin:bevel;image-rendering:optimizeQuality;shape-rendering:geometricPrecision;text-rendering:geometricPrecision"
       id="line8352"
       y2="814.96222"
       x2="1117.3848"
       y1="814.96222"
       x1="1214.6395"
       class="fil0 str2" />
    <path
       class="fil0 str3"
       d="m 1441.5172,830.02898 0,-138.32905 0,-0.15036 c -0.1505,-2.25536 -1.9571,-3.9093 -4.0648,-3.9093 l -50.2835,0 -229.1359,0 -50.2834,0 c -2.1077,0 -3.7637,1.50358 -4.0649,3.45823 l 0,0.60143 0,138.32905 c 0,2.25537 1.8066,4.21002 4.0649,4.21002 l 329.7028,0 c 2.1077,0 4.0648,-1.95465 4.0648,-4.21002 z"
       id="path8354"
       inkscape:connector-curvature="0"
       style="clip-rule:evenodd;fill:#cacac4;fill-opacity:1;fill-rule:evenodd;stroke:#babdb6;stroke-width:3;stroke-miterlimit:4;stroke-dasharray:none;stroke-opacity:1;image-rendering:optimizeQuality;shape-rendering:geometricPrecision;text-rendering:geometricPrecision"
       inkscape:export-xdpi="81.68"
       inkscape:export-ydpi="81.68"
       sodipodi:nodetypes="sccsccsccssss" />
    <line
       inkscape:export-ydpi="81.68"
       inkscape:export-xdpi="81.68"
       style="clip-rule:evenodd;fill:none;fill-rule:evenodd;stroke:#757475;stroke-width:0.26999399;stroke-linejoin:bevel;image-rendering:optimizeQuality;shape-rendering:geometricPrecision;text-rendering:geometricPrecision"
       id="line8356"
       y2="734.6712"
       x2="1385.9646"
       y1="734.6712"
       x1="1411.4073"
       class="fil0 str2" />
    <line
       inkscape:export-ydpi="81.68"
       inkscape:export-xdpi="81.68"
       style="clip-rule:evenodd;fill:none;fill-rule:evenodd;stroke:#757475;stroke-width:0.26999399;stroke-linejoin:bevel;image-rendering:optimizeQuality;shape-rendering:geometricPrecision;text-rendering:geometricPrecision"
       id="line8358"
       y2="734.6712"
       x2="1319.1206"
       y1="734.6712"
       x1="1344.413"
       class="fil0 str2" />
    <path
       inkscape:export-ydpi="81.68"
       inkscape:export-xdpi="81.68"
       style="clip-rule:evenodd;fill:none;fill-rule:evenodd;stroke:#757475;stroke-width:0.26999399;stroke-linejoin:bevel;image-rendering:optimizeQuality;shape-rendering:geometricPrecision;text-rendering:geometricPrecision"
       inkscape:connector-curvature="0"
       id="path8360"
       d="m 1114.8254,812.55645 c 0,0.60143 0.3011,1.20286 0.7527,1.65394 0.4517,0.60143 1.0539,0.75179 1.8066,0.75179"
       class="fil0 str2" />
    <path
       sodipodi:nodetypes="sccsccsccssss"
       inkscape:export-ydpi="81.68"
       inkscape:export-xdpi="81.68"
       style="clip-rule:evenodd;fill:#eeeeec;fill-opacity:1;fill-rule:evenodd;stroke:#babdb6;stroke-width:3;stroke-miterlimit:4;stroke-dasharray:none;stroke-opacity:1;image-rendering:optimizeQuality;shape-rendering:geometricPrecision;text-rendering:geometricPrecision"
       inkscape:connector-curvature="0"
       id="path8362"
       d="m 1441.5172,822.02898 0,-138.32905 0,-0.15036 c -0.1505,-2.25536 -1.9571,-3.9093 -4.0648,-3.9093 l -50.2835,0 -229.1359,0 -50.2834,0 c -2.1077,0 -3.7637,1.50358 -4.0649,3.45823 l 0,0.60143 0,138.32905 c 0,2.25537 1.8066,4.21002 4.0649,4.21002 l 329.7028,0 c 2.1077,0 4.0648,-1.95465 4.0648,-4.21002 z"
       class="fil0 str3" />
    <path
       inkscape:export-ydpi="81.68"
       inkscape:export-xdpi="81.68"
       style="clip-rule:evenodd;fill:#ef2929;fill-opacity:1;fill-rule:evenodd;stroke:none;stroke-width:2;stroke-miterlimit:4;stroke-dasharray:none;stroke-opacity:1;image-rendering:optimizeQuality;shape-rendering:geometricPrecision;text-rendering:geometricPrecision"
       inkscape:connector-curvature="0"
       id="path8364"
       d="m 1375.6689,675.6105 0,2.60367 62.1956,0 c 2.607,0 4.8415,2.04575 5.0277,4.8354 l 0,-3.16161 c 0,-1.85976 -0.7449,-3.53356 -2.0483,-4.83539 -1.3036,-1.30185 -2.9794,-1.85978 -4.8416,-1.85978 l -24.3941,0 -8.9382,0 -24.5803,0 c -1.3035,0 -2.2346,0.92989 -2.4208,2.23173 l 0,0.18598 z"
       class="fil0 str3" />
    <path
       inkscape:export-ydpi="81.68"
       inkscape:export-xdpi="81.68"
       style="color:#000000;clip-rule:evenodd;display:inline;overflow:visible;visibility:visible;opacity:1;isolation:auto;mix-blend-mode:normal;color-interpolation:sRGB;color-interpolation-filters:linearRGB;solid-color:#000000;solid-opacity:1;fill:#2e3436;fill-opacity:1;fill-rule:evenodd;stroke:none;stroke-width:0.26999399;stroke-linecap:butt;stroke-linejoin:bevel;stroke-miterlimit:4;stroke-dasharray:none;stroke-dashoffset:0;stroke-opacity:1;color-rendering:auto;image-rendering:optimizeQuality;shape-rendering:geometricPrecision;text-rendering:geometricPrecision;enable-background:accumulate"
       inkscape:connector-curvature="0"
       id="path8366"
       d="m 1194.767,776.62097 0,-21.80186 c 0,-0.30072 -0.3011,-0.60143 -0.6022,-0.60143 l -5.7208,0 -2.4088,0 -7.3769,0 -2.4088,0 c -0.4517,0 -0.7528,-0.30072 -0.7528,-0.75179 l 0,-7.36753 0,-2.40572 0,-2.55608 0,-5.56323 c 0,-0.30072 -0.3011,-0.60144 -0.6022,-0.60144 l -21.8296,0 c -0.3011,0 -0.6022,0.30072 -0.6022,0.60144 l 0,5.56323 0,2.55608 0,7.21717 0,2.55608 c 0,0.45107 -0.3011,0.75179 -0.7528,0.75179 l -7.3769,0 -2.4087,0 -2.4088,0 -5.4198,0 c -0.3011,0 -0.6022,0.30071 -0.6022,0.60143 l 0,21.80186 c 0,0.30071 0.3011,0.45107 0.6022,0.45107 l 5.4198,0 2.4088,0 7.3769,0 2.4087,0 c 0.4517,0 0.7528,0.45107 0.7528,0.90215 l 0,7.21717 0,2.55608 0,2.40572 0,5.71359 c 0,0.30071 0.3011,0.45107 0.6022,0.45107 l 21.8296,0 c 0.3011,0 0.6022,-0.15036 0.6022,-0.45107 l 0,-5.71359 0,-2.40572 0,-7.36753 0,-2.40572 c 0,-0.45108 0.3011,-0.90215 0.7528,-0.90215 l 7.3769,0 2.4088,0 2.4088,0 5.7208,0 c 0.3011,0 0.6022,-0.15036 0.6022,-0.45107 z"
       class="fil0 str3" />
    <path
       inkscape:export-ydpi="81.68"
       inkscape:export-xdpi="81.68"
       style="color:#000000;clip-rule:evenodd;display:inline;overflow:visible;visibility:visible;opacity:1;isolation:auto;mix-blend-mode:normal;color-interpolation:sRGB;color-interpolation-filters:linearRGB;solid-color:#000000;solid-opacity:1;fill:#ef2929;fill-opacity:1;fill-rule:evenodd;stroke:none;stroke-width:0.26999399;stroke-linecap:butt;stroke-linejoin:miter;stroke-miterlimit:4;stroke-dasharray:none;stroke-dashoffset:0;stroke-opacity:1;color-rendering:auto;image-rendering:optimizeQuality;shape-rendering:geometricPrecision;text-rendering:geometricPrecision;enable-background:accumulate"
       inkscape:connector-curvature="0"
       id="path8368"
       d="m 1365.1887,770.95019 c -7.0276,0 -12.7538,5.71891 -12.7538,12.73759 0,7.01867 5.7262,12.73759 12.7538,12.73759 7.0277,0 12.7539,-5.71892 12.7539,-12.73759 0,-7.01868 -5.7262,-12.73759 -12.7539,-12.73759 z"
       class="fil0 str3" />
    <path
       inkscape:export-ydpi="81.68"
       inkscape:export-xdpi="81.68"
       style="color:#000000;clip-rule:evenodd;display:inline;overflow:visible;visibility:visible;opacity:1;isolation:auto;mix-blend-mode:normal;color-interpolation:sRGB;color-interpolation-filters:linearRGB;solid-color:#000000;solid-opacity:1;fill:#ef2929;fill-opacity:1;fill-rule:evenodd;stroke:none;stroke-width:0.26999399;stroke-linecap:butt;stroke-linejoin:miter;stroke-miterlimit:4;stroke-dasharray:none;stroke-dashoffset:0;stroke-opacity:1;color-rendering:auto;image-rendering:optimizeQuality;shape-rendering:geometricPrecision;text-rendering:geometricPrecision;enable-background:accumulate"
       inkscape:connector-curvature="0"
       id="path8370"
       d="m 1396.0513,740.12687 c -7.0276,0 -12.7538,5.71891 -12.7538,12.73759 0,7.01867 5.7262,12.73759 12.7538,12.73759 7.0277,0 12.7539,-5.71892 12.7539,-12.73759 0,-7.01868 -5.7262,-12.73759 -12.7539,-12.73759 z"
       class="fil0 str3" />
    <path
       inkscape:export-ydpi="81.68"
       inkscape:export-xdpi="81.68"
       style="color:#000000;clip-rule:evenodd;display:inline;overflow:visible;visibility:visible;opacity:1;isolation:auto;mix-blend-mode:normal;color-interpolation:sRGB;color-interpolation-filters:linearRGB;solid-color:#000000;solid-opacity:1;fill:#ef2929;fill-opacity:1;fill-rule:evenodd;stroke:none;stroke-width:0.26999399;stroke-linecap:butt;stroke-linejoin:miter;stroke-miterlimit:4;stroke-dasharray:none;stroke-dashoffset:0;stroke-opacity:1;color-rendering:auto;image-rendering:optimizeQuality;shape-rendering:geometricPrecision;text-rendering:geometricPrecision;enable-background:accumulate"
       inkscape:connector-curvature="0"
       id="path8372"
       d="m 1365.1887,709.30355 c -7.0276,0 -12.7538,5.71891 -12.7538,12.73759 0,7.01867 5.7262,12.73759 12.7538,12.73759 7.0277,0 12.7539,-5.71892 12.7539,-12.73759 0,-7.01868 -5.7262,-12.73759 -12.7539,-12.73759 z"
       class="fil0 str3" />
    <path
       inkscape:export-ydpi="81.68"
       inkscape:export-xdpi="81.68"
       style="clip-rule:evenodd;fill:#ef2929;fill-opacity:1;fill-rule:evenodd;stroke:none;stroke-width:0.26999399;image-rendering:optimizeQuality;shape-rendering:geometricPrecision;text-rendering:geometricPrecision"
       inkscape:connector-curvature="0"
       id="path8374"
       d="m 1334.3261,740.12687 c -7.0276,0 -12.7538,5.71891 -12.7538,12.73759 0,7.01867 5.7262,12.73759 12.7538,12.73759 7.0277,0 12.7539,-5.71892 12.7539,-12.73759 0,-7.01868 -5.7262,-12.73759 -12.7539,-12.73759 z"
       class="fil0 str3" />
    <path
       inkscape:export-ydpi="81.68"
       inkscape:export-xdpi="81.68"
       style="color:#000000;clip-rule:evenodd;display:inline;overflow:visible;visibility:visible;opacity:1;isolation:auto;mix-blend-mode:normal;color-interpolation:sRGB;color-interpolation-filters:linearRGB;solid-color:#000000;solid-opacity:1;fill:#2e3436;fill-opacity:1;fill-rule:evenodd;stroke:none;stroke-width:0.26999399;stroke-linecap:butt;stroke-linejoin:bevel;stroke-miterlimit:4;stroke-dasharray:none;stroke-dashoffset:0;stroke-opacity:1;color-rendering:auto;image-rendering:optimizeQuality;shape-rendering:geometricPrecision;text-rendering:geometricPrecision;enable-background:accumulate"
       inkscape:connector-curvature="0"
       id="path8376"
       d="m 1231.9527,776.92168 c -1.6561,0 -3.1615,0.90215 -4.0648,2.25537 -0.7528,1.50357 -0.7528,3.15751 0,4.66109 0.9032,1.35322 2.4087,2.25536 4.0648,2.25536 l 16.4098,0 c 1.6561,0 3.1616,-0.90214 3.9143,-2.25536 0.9033,-1.50358 0.9033,-3.15752 0,-4.66109 -0.7527,-1.35322 -2.2582,-2.25537 -3.9143,-2.25537 l -16.4098,0 z"
       class="fil0 str3" />
    <path
       inkscape:export-ydpi="81.68"
       inkscape:export-xdpi="81.68"
       style="clip-rule:evenodd;fill:none;fill-rule:evenodd;stroke:#757475;stroke-width:0.26999399;image-rendering:optimizeQuality;shape-rendering:geometricPrecision;text-rendering:geometricPrecision"
       inkscape:connector-curvature="0"
       id="path8378"
       d="m 1271.0955,779.17705 c -0.9033,1.50357 -0.9033,3.15751 0,4.66109 0.7527,1.35322 2.2582,2.25536 3.9142,2.25536 l 16.4099,0 c 1.6561,0 3.1616,-0.90214 4.0648,-2.25536 0.7528,-1.50358 0.7528,-3.15752 0,-4.66109 -0.9032,-1.35322 -2.4087,-2.25537 -4.0648,-2.25537 l -16.4099,0 c -1.656,0 -3.1615,0.90215 -3.9142,2.25537 z"
       class="fil0 str3" />
    <path
       sodipodi:nodetypes="sscsccscssscsscsscsscssscsscsscsscsccscsscsc"
       inkscape:connector-curvature="0"
       d="m 1304.668,804.13642 -85.9637,0 c -1.0538,0 -2.1076,0.45108 -2.8604,1.20286 -0.7527,0.75179 -1.2044,1.80429 -1.2044,2.8568 l 0,6.7661 94.0933,0 0,-6.7661 c 0,-1.05251 -0.4517,-2.10501 -1.2044,-2.8568 -0.7528,-0.75178 -1.8066,-1.20286 -2.8604,-1.20286 z m 0,-59.99271 -85.9637,0 c -1.0538,0 -2.1076,0.45107 -2.8604,1.20286 -0.7527,0.75179 -1.2044,1.80429 -1.2044,2.8568 l 0,8.26967 c 0,1.05251 0.4517,2.10501 1.2044,2.8568 0.7528,0.75178 1.8066,1.20286 2.8604,1.20286 l 85.9637,0 c 1.0538,0 2.1076,-0.45108 2.8604,-1.20286 0.7527,-0.75179 1.2044,-1.80429 1.2044,-2.8568 l 0,-8.26967 c 0,-1.05251 -0.4517,-2.10501 -1.2044,-2.8568 -0.7528,-0.75179 -1.8066,-1.20286 -2.8604,-1.20286 z m 0,-21.20043 -85.9637,0 c -1.0538,0 -2.1076,0.45108 -2.8604,1.20287 -0.7527,0.75178 -1.2044,1.80429 -1.2044,2.85679 l 0,8.11931 c 0,1.05251 0.4517,2.10501 1.2044,2.8568 0.7528,0.90215 1.8066,1.20286 2.8604,1.20286 l 85.9637,0 c 1.0538,0 2.1076,-0.30071 2.8604,-1.20286 0.7527,-0.75179 1.2044,-1.80429 1.2044,-2.8568 l 0,-8.11931 c 0,-1.0525 -0.4517,-2.10501 -1.2044,-2.85679 -0.7528,-0.75179 -1.8066,-1.20287 -2.8604,-1.20287 z m 4.0648,-18.64435 -94.0933,0 0,9.62289 c 0,1.0525 0.4517,2.10501 1.2044,2.85679 0.7528,0.75179 1.8066,1.20287 2.8604,1.20287 l 85.9637,0 c 1.0538,0 2.1076,-0.45108 2.8604,-1.20287 0.7527,-0.75178 1.2044,-1.80429 1.2044,-2.85679 z"
       style="clip-rule:evenodd;fill:#d3d7cf;fill-opacity:1;fill-rule:evenodd;stroke:none;stroke-width:0.26999399;image-rendering:optimizeQuality;shape-rendering:geometricPrecision;text-rendering:geometricPrecision"
       id="path8380" />
    <path
       inkscape:export-ydpi="81.68"
       inkscape:export-xdpi="81.68"
       sodipodi:nodetypes="ccssccssc"
       class="fil0 str3"
       d="m 1271.0955,783.83814 c -0.9033,-1.50358 -0.9033,-3.15752 0,-4.66109 0.7527,-1.35322 2.2582,-2.25537 3.9142,-2.25537 l 16.4099,0 c 1.6561,0 3.1616,0.90215 4.0648,2.25537 0.7528,1.50357 0.7528,3.15751 0,4.66109 -0.9032,1.35322 -2.4087,2.25536 -4.0648,2.25536 l -16.4099,0 c -1.656,0 -3.1615,-0.90214 -3.9142,-2.25536 z"
       id="path8382"
       inkscape:connector-curvature="0"
       style="color:#000000;clip-rule:evenodd;display:inline;overflow:visible;visibility:visible;opacity:1;isolation:auto;mix-blend-mode:normal;color-interpolation:sRGB;color-interpolation-filters:linearRGB;solid-color:#000000;solid-opacity:1;fill:#2e3436;fill-opacity:1;fill-rule:evenodd;stroke:none;stroke-width:0.26999399;stroke-linecap:butt;stroke-linejoin:bevel;stroke-miterlimit:4;stroke-dasharray:none;stroke-dashoffset:0;stroke-opacity:1;color-rendering:auto;image-rendering:optimizeQuality;shape-rendering:geometricPrecision;text-rendering:geometricPrecision;enable-background:accumulate" />
    <path
       inkscape:export-ydpi="81.68"
       inkscape:export-xdpi="81.68"
       style="clip-rule:evenodd;fill:#babdb6;fill-opacity:1;fill-rule:evenodd;stroke:none;stroke-width:0.26999399;image-rendering:optimizeQuality;shape-rendering:geometricPrecision;text-rendering:geometricPrecision"
       inkscape:connector-curvature="0"
       id="path8384"
       d="m 1152.9905,743.62809 0,-2.54549 0,-5.5402 c 0,-0.29944 0.2995,-0.59892 0.5989,-0.59892 l 21.7116,0 c 0.2994,0 0.5989,0.29948 0.5989,0.59892 l 0,5.5402 0,2.54549 0,2.39579 0,7.33698 c 0,0.44924 0.2995,0.74871 0.7487,0.74871 l 2.3958,0 7.337,0 2.3957,0 5.69,0 c 0.2994,0 0.5989,0.29947 0.5989,0.59892 l 0,21.71152 c 0,0.29947 -0.2995,0.44921 -0.5989,0.44921 l -5.69,0 -2.3957,0 -2.3958,0 -7.337,0 c -0.4492,0 -0.7487,0.44923 -0.7487,0.89842 l 0,2.39579 0,7.33698 0,2.39578 0,5.68991 c 0,0.29947 -0.2995,0.44914 -0.5989,0.44914 l -21.7116,0 c -0.2994,0 -0.5989,-0.14968 -0.5989,-0.44914 l 0,-5.68991 0,-2.39578 0,-2.5455 0,-7.18727 c 0,-0.44919 -0.2994,-0.89842 -0.7487,-0.89842 l -2.3958,0 -7.337,0 -2.3957,0 -5.3905,0 c -0.2994,0 -0.5989,-0.14974 -0.5989,-0.44921 l 0,-21.71152 c 0,-0.29945 0.2995,-0.59892 0.5989,-0.59892 l 5.3905,0 2.3957,0 2.3958,0 7.337,0 c 0.4493,0 0.7487,-0.29947 0.7487,-0.74871 l 0,-2.54547 0,-7.1873 z m 63.0383,-5.6899 c -0.7486,-0.74869 -1.1979,-1.79678 -1.1979,-2.84494 l 0,-8.08569 c 0,-1.04816 0.4493,-2.09628 1.1979,-2.84494 0.7487,-0.74871 1.7968,-1.19787 2.845,-1.19787 l 85.4985,0 c 1.0482,0 2.0964,0.44915 2.845,1.19787 0.7487,0.74866 1.1979,1.79678 1.1979,2.84494 l 0,8.08569 c 0,1.04816 -0.4492,2.09625 -1.1979,2.84494 -0.7486,0.89839 -1.7968,1.19786 -2.845,1.19786 l -85.4985,0 c -1.0482,0 -2.0963,-0.29947 -2.845,-1.19786 z m 2.845,6.13914 85.4985,0 c 1.0482,0 2.0964,0.44922 2.845,1.19786 0.7487,0.74869 1.1979,1.79684 1.1979,2.84495 l 0,8.23545 c 0,1.04815 -0.4492,2.09626 -1.1979,2.84494 -0.7486,0.74872 -1.7968,1.19786 -2.845,1.19786 l -85.4985,0 c -1.0482,0 -2.0963,-0.44914 -2.845,-1.19786 -0.7486,-0.74868 -1.1979,-1.79679 -1.1979,-2.84494 l 0,-8.23545 c 0,-1.04811 0.4493,-2.09626 1.1979,-2.84495 0.7487,-0.74864 1.7968,-1.19786 2.845,-1.19786 z m 96.8784,23.95751 0,-30.39609 c 0,-0.89843 0.2994,-1.64711 0.8984,-2.24604 0.4492,-0.44923 1.1978,-0.7487 2.0963,-0.7487 l 25.1554,0 c 0.7487,0 1.3476,-0.29948 1.7969,-0.74862 0.4491,-0.44924 0.7486,-1.04816 0.7486,-1.79687 l 0,-24.7062 c 0,-0.74871 -0.2995,-1.49734 -0.8984,-2.09634 -0.599,-0.44915 -1.3476,-0.89839 -2.0963,-0.89839 l -35.0379,0 0,9.58302 c 0,1.04816 -0.4492,2.09632 -1.1979,2.845 -0.7486,0.74862 -1.7968,1.19787 -2.845,1.19787 l -85.4985,0 c -1.0482,0 -2.0963,-0.44925 -2.845,-1.19787 -0.7486,-0.74868 -1.1979,-1.79684 -1.1979,-2.845 l 0,-9.58302 -96.7286,0 c -0.7487,0 -1.3476,0.29947 -1.7968,0.74871 -0.4492,0.44921 -0.7487,1.04816 -0.7487,1.79678 l 0,105.26354 c 0,0.59892 0.2995,1.19787 0.7487,1.64707 0.4492,0.59895 1.0481,0.74872 1.7968,0.74872 l 96.7286,0 0,-6.73805 c 0,-1.04817 0.4493,-2.09633 1.1979,-2.84498 0.7487,-0.74867 1.7968,-1.19793 2.845,-1.19793 l 85.4985,0 c 1.0482,0 2.0964,0.44926 2.845,1.19793 0.7487,0.74865 1.1979,1.79681 1.1979,2.84498 l 0,6.73805 118.4401,0 c 0.5991,0 1.3477,-0.14977 1.7969,-0.74872 0.4492,-0.4492 0.599,-1.04815 0.599,-1.64707 l 0,-105.26354 c 0,-0.74862 -0.1498,-1.34757 -0.599,-1.79678 -0.4492,-0.44924 -1.1978,-0.74871 -1.7969,-0.74871 l -41.0272,0 c -0.8984,0 -1.6471,0.44923 -2.2461,0.89839 -0.4492,0.59899 -0.7487,1.34763 -0.7487,2.09634 l 0,24.7062 c 0,0.74871 0.1498,1.34763 0.599,1.79687 0.4492,0.44914 1.1979,0.74862 1.7968,0.74862 l 25.3052,0 c 0.7487,0 1.4974,0.29947 2.0963,0.7487 0.5989,0.59892 0.8984,1.34761 0.8984,2.24604 l 0,30.39609 c 0,0.74872 -0.2995,1.4974 -0.8984,2.09635 -0.5989,0.44921 -1.3476,0.74868 -2.0963,0.74868 l -25.3052,0 c -0.5989,0 -1.3476,0.29947 -1.7968,0.74863 -0.4492,0.44924 -0.599,1.04815 -0.599,1.79687 l 0,25.30514 c 0,0.74868 -0.2994,1.49733 -0.8984,2.09631 -0.5989,0.44918 -1.3476,0.74862 -2.0962,0.74862 l -30.3962,0 c -0.8984,0 -1.6471,-0.29944 -2.0963,-0.74862 -0.5989,-0.59898 -0.8984,-1.34763 -0.8984,-2.09631 l 0,-25.30514 c 0,-0.74872 -0.2995,-1.34763 -0.7486,-1.79687 -0.4493,-0.44916 -1.0482,-0.74863 -1.7969,-0.74863 l -25.1554,0 c -0.8985,0 -1.6471,-0.29947 -2.0963,-0.74868 -0.599,-0.59895 -0.8984,-1.34763 -0.8984,-2.09635 z m -96.2795,-3.29411 84.1509,0 c 1.198,0 2.2461,0.44918 3.1445,1.19786 0.7486,0.89839 1.1979,1.94658 1.1979,3.14441 l 0,24.40678 c 0,1.19792 -0.4493,2.24602 -1.1979,3.14447 -0.8984,0.74863 -1.9465,1.19787 -3.1445,1.19787 l -84.1509,0 c -1.0481,0 -2.246,-0.44924 -2.9947,-1.19787 -0.7486,-0.89845 -1.3476,-1.94655 -1.3476,-3.14447 l 0,-24.40678 c 0,-1.19783 0.599,-2.24602 1.3476,-3.14441 0.7487,-0.74868 1.9466,-1.19786 2.9947,-1.19786 z"
       class="fil0 str3" />
    <path
       class="fil0 str3"
       d="m 1169.4226,675.6105 0,2.60367 -62.1956,0 c -2.607,0 -4.8415,2.04575 -5.0277,4.8354 l 0,-3.16161 c 0,-1.85976 0.7449,-3.53356 2.0483,-4.83539 1.3036,-1.30185 2.9794,-1.85978 4.8416,-1.85978 l 24.394,0 8.9383,0 24.5803,0 c 1.3035,0 2.2345,0.92989 2.4208,2.23173 l 0,0.18598 z"
       id="path8386"
       inkscape:connector-curvature="0"
       style="clip-rule:evenodd;fill:#ef2929;fill-opacity:1;fill-rule:evenodd;stroke:none;stroke-width:2;stroke-miterlimit:4;stroke-dasharray:none;stroke-opacity:1;image-rendering:optimizeQuality;shape-rendering:geometricPrecision;text-rendering:geometricPrecision"
       inkscape:export-xdpi="81.68"
       inkscape:export-ydpi="81.68" />
  </g>
</svg>
